<?xml version="1.0" encoding="utf-8"?>
<!-- Generator: Adobe Illustrator 27.0.1, SVG Export Plug-In . SVG Version: 6.00 Build 0)  -->
<svg version="1.1" id="Layer_1" xmlns="http://www.w3.org/2000/svg" xmlns:xlink="http://www.w3.org/1999/xlink" x="0px" y="0px"
	 viewBox="0 0 1000 1000" style="enable-background:new 0 0 1000 1000;" xml:space="preserve">
<style type="text/css">
	.st0{fill:url(#SVGID_1_);}
	.st1{fill:#04295E;}
	.st2{fill:#FEB789;}
	.st3{fill:#E29BEB;}
	.st4{fill:#E50188;}
	.st5{fill:#01C5EF;}
	.st6{fill:#FFFFFF;}
</style>
<g>
	<linearGradient id="SVGID_1_" gradientUnits="userSpaceOnUse" x1="500" y1="632.1761" x2="500" y2="452.9271">
		<stop  offset="0" style="stop-color:#1D6FF2"/>
		<stop  offset="1" style="stop-color:#1AC8FC"/>
	</linearGradient>
	<path class="st0" d="M624.15,617.65h-248.3c-29.89,0-54.35-24.46-54.35-54.35v-248.3c0-29.89,24.46-54.35,54.35-54.35h248.3
		c29.89,0,54.35,24.46,54.35,54.35v248.3C678.5,593.19,654.04,617.65,624.15,617.65z"/>
	<g>
		<g>
			<path class="st1" d="M620.99,587.81c-41.6,0-199.27-0.03-240.7-0.03c-3.34,0-6.04-2.71-6.04-6.04V449.73c0-3.33-2.68-6.03-6-6.04
				c-9.94-0.05-22.63-0.22-32.39-0.4c-5.48-0.1-8.01-6.87-3.93-10.54c54.78-49.31,109.58-98.62,164.58-148.12
				c2.3-2.07,5.79-2.07,8.09,0l164.8,148.32c4.12,3.71,1.5,10.54-4.04,10.54h-32.26c-3.34,0-6.04,2.71-6.04,6.04v132.24
				C627.03,585.1,624.33,587.81,620.99,587.81z"/>
		</g>
	</g>
	<path class="st2" d="M497.5,471.17h-97.64v-71.64c0-14.36,11.64-26,26-26h71.64V471.17z"/>
	<path class="st3" d="M602.77,471.17h-97.64v-97.64h71.64c14.36,0,26,11.64,26,26V471.17z"/>
	<path class="st4" d="M497.5,577.97h-88.21c-5.21,0-9.43-4.22-9.43-9.43v-88.21h97.64V577.97z"/>
	<path class="st5" d="M593.34,577.97h-88.21v-97.64h97.64v88.21C602.77,573.75,598.55,577.97,593.34,577.97z"/>
	<g>
		<path class="st6" d="M426.66,412.99c0.76-1.2,1.49-2.36,2.26-3.59c1.48,0.92,2.92,1.82,4.36,2.71c3.37,2.09,6.75,4.18,10.13,6.27
			c1.07,0.66,2.12,1.34,3.21,1.97c0.21,0.12,0.59,0.16,0.8,0.05c2.42-1.26,4.83-2.56,7.31-3.89c-0.25-0.45-0.46-0.83-0.66-1.21
			c-1.51-2.77-0.68-5.99,2.05-7.57c4.85-2.8,9.71-5.57,14.59-8.32c2.53-1.42,5.77-0.6,7.28,1.88c1.44,2.36,2.81,4.76,4.11,7.2
			c1.38,2.59,0.38,5.76-2.24,7.29c-2.34,1.37-4.71,2.69-7.07,4.03c-2.38,1.36-4.76,2.71-7.13,4.07c-2.92,1.68-6.22,0.8-7.9-2.12
			c-0.12-0.21-0.25-0.41-0.41-0.66c-0.21,0.1-0.38,0.16-0.55,0.26c-2.94,1.77-5.86,3.55-8.81,5.31
			c-10.53,6.27-21.06,12.53-31.6,18.79c-1.63,0.97-3.41,0.74-4.6-0.53c-1.11-1.19-1.31-3.03-0.37-4.37c0.36-0.5,0.87-0.96,1.41-1.26
			c6.94-3.81,13.9-7.58,20.85-11.37c0.22-0.12,0.43-0.24,0.81-0.45c-4.09-2.56-8.08-5.05-12.12-7.58c0.76-1.23,1.48-2.39,2.2-3.55
			c-1.09-0.7-2.11-1.49-3.25-2.03c-1.37-0.65-2.81-1.17-4.27-1.62c-1.95-0.6-3.72-1.45-5.11-2.98c-0.31-0.34-0.59-0.74-0.79-1.15
			c-1.04-2.19,0.53-4.45,2.95-4.27c1.64,0.12,3.02,0.89,4.28,1.86c0.57,0.43,1.12,0.92,1.55,1.47c1.55,1.98,3.48,3.47,5.71,4.62
			C425.98,412.42,426.27,412.7,426.66,412.99z M478.97,412.44c-0.14-1.23-1.28-1.92-2.31-1.38c-0.87,0.45-1.72,0.96-2.57,1.45
			c-3.32,1.89-6.64,3.77-9.95,5.68c-0.8,0.46-1.03,1.3-0.61,2.01c0.4,0.69,1.23,0.93,1.99,0.5c4.18-2.36,8.36-4.74,12.51-7.14
			C478.42,413.32,478.66,412.82,478.97,412.44z M462.38,416.45c0.17-0.07,0.53-0.17,0.84-0.35c2.96-1.67,5.91-3.36,8.86-5.04
			c1.16-0.66,2.32-1.3,3.46-1.98c0.73-0.44,0.94-1.24,0.57-1.92c-0.39-0.7-1.2-0.94-1.98-0.58c-0.13,0.06-0.26,0.14-0.39,0.21
			c-3.12,1.78-6.25,3.56-9.37,5.34c-0.96,0.55-1.94,1.08-2.88,1.66c-0.61,0.37-0.84,0.96-0.63,1.66
			C461.06,416.08,461.52,416.42,462.38,416.45z M473.74,403.7c0.02-1.43-1.17-2.11-2.23-1.51c-4.16,2.34-8.31,4.72-12.45,7.09
			c-0.8,0.46-1.02,1.24-0.64,1.95c0.4,0.74,1.23,1.01,2.03,0.56c4.18-2.36,8.36-4.73,12.51-7.14
			C473.35,404.41,473.58,403.9,473.74,403.7z M416.91,442.34c-0.02-1.28-1.1-2.32-2.39-2.3c-1.29,0.02-2.33,1.1-2.3,2.39
			c0.02,1.29,1.1,2.32,2.39,2.3C415.9,444.7,416.92,443.65,416.91,442.34z"/>
		<path class="st6" d="M466.81,442.71c-0.71,1.13-1.45,2.29-2.23,3.54c-7.73-4.82-15.41-9.61-23.2-14.46
			c0.71-0.47,1.3-0.89,1.92-1.26c3.13-1.86,6.28-3.7,9.41-5.57c0.4-0.24,0.69-0.31,1.13-0.04c5.57,3.5,11.16,6.98,16.75,10.46
			c0.16,0.1,0.31,0.23,0.53,0.39c-0.74,1.2-1.48,2.39-2.18,3.52c0.64,0.41,1.23,0.75,1.8,1.14c1.62,1.11,3.34,1.99,5.28,2.41
			c1.91,0.42,3.68,1.19,5.07,2.6c0.62,0.63,1.19,1.42,1.47,2.25c0.59,1.76-0.76,3.54-2.62,3.64c-1.81,0.1-3.31-0.72-4.68-1.76
			c-0.78-0.59-1.5-1.29-2.12-2.05c-1.24-1.52-2.72-2.7-4.42-3.64C468.1,443.54,467.51,443.14,466.81,442.71z"/>
	</g>
	<g>
		<path class="st6" d="M544.58,455.1c-1.19-0.25-3.61-0.44-5.78-1.26c-6.65-2.53-12.62-6.19-17.63-11.32
			c-0.17-0.17-0.4-0.33-0.48-0.54c-0.33-0.81-0.62-1.65-0.93-2.47c0.89-0.25,1.81-0.78,2.67-0.69c2.28,0.23,4.49,0.09,6.69-0.53
			c3.32-0.93,6.01-2.88,8.39-5.26c1.94-1.94,3.74-4.01,5.63-6c1.41-1.48,2.51-1.65,4.3-0.64c4.51,2.56,9.01,5.14,13.5,7.73
			c1.61,0.93,2.06,1.64,1.55,3.46c-0.83,2.96-1.56,6.02-2.91,8.75C556.8,451.94,551.93,454.6,544.58,455.1z M546.42,441.8
			c-1.23,3.26-2.5,6.87-6.04,9.09c1.95,0.92,3.74,1.25,5.44-0.4c0.92-0.9,2.09-1.56,2.91-2.53c1.81-2.16,3.46-4.45,4.93-6.35
			c-0.67,2.98-1.47,6.43-3.62,9.48c1.52-0.77,2.99-1.57,4.25-2.64c2.9-2.48,3.93-5.98,4.85-9.5c0.48-1.83,0.26-2.34-1.35-3.26
			c-3.27-1.89-6.55-3.77-9.83-5.64c-1.95-1.11-2.5-1.01-4.06,0.67c-1.07,1.15-2.15,2.3-3.24,3.43c-3.02,3.15-6.41,5.72-10.63,7.1
			c-0.61,0.2-1.48,0.91-1.48,1.39c-0.01,0.86,0.81,1.3,1.77,1.47c2.63,0.47,5.04,0.07,7.23-1.48c0.39-0.28,0.75-0.6,1.13-0.9
			c-1.36,2.41-3.36,4.05-5.9,5.06c2.78,2.54,4.26,2.7,7.38,0.85c0.24-0.14,0.5-0.28,0.7-0.47
			C542.78,445.31,544.7,443.45,546.42,441.8z"/>
		<path class="st6" d="M562.85,420.92c-1.76-1.01-3.42-1.97-5.15-2.97c1.97-3.15,4.08-6.51,6.19-9.88
			c3.11-4.98,6.22-9.96,9.33-14.93c0.15-0.24,0.29-0.48,0.45-0.72c0.8-1.21,1.95-1.57,2.95-0.95c1,0.61,1.21,1.71,0.54,2.96
			c-1.59,2.98-3.19,5.94-4.8,8.91c-3.05,5.66-6.1,11.31-9.15,16.97C563.06,420.59,562.89,420.86,562.85,420.92z"/>
		<path class="st6" d="M563.44,432.03c-5.27-3.02-10.38-5.95-15.68-8.99c3.51-1.64,6.89-2.64,10.42-0.85
			C562.08,424.18,563.03,427.87,563.44,432.03z"/>
		<path class="st6" d="M577.53,442.03c0.02,1.73-1.2,2.99-2.91,3.01c-1.7,0.02-3.01-1.23-3.04-2.91c-0.03-1.68,1.26-3,2.94-3.02
			C576.24,439.1,577.51,440.33,577.53,442.03z M574.57,443.55c0.48-0.73,0.98-1.15,0.92-1.49c-0.06-0.36-0.6-0.8-0.99-0.87
			c-0.23-0.04-0.81,0.55-0.82,0.87C573.67,442.43,574.11,442.82,574.57,443.55z"/>
		<path class="st6" d="M577.61,449.1c1.1,0.02,1.98,0.93,1.95,2.02c-0.03,1.11-0.91,1.93-2.05,1.91c-1.12-0.02-1.98-0.91-1.95-2.02
			C575.6,449.91,576.47,449.08,577.61,449.1z"/>
		<path class="st6" d="M567.58,453.1c-0.02,1.07-0.97,2.01-2.03,1.99c-1.09-0.02-1.98-0.95-1.96-2.05c0.02-1.1,0.95-2.01,2.02-1.99
			C566.68,451.07,567.59,452.02,567.58,453.1z"/>
	</g>
	<g>
		<path class="st6" d="M523.47,504.98c0.44,0.34,0.91,0.65,1.31,1.03c3.12,3.1,6.23,6.21,9.32,9.33c0.3,0.3,0.55,0.37,0.96,0.27
			c2.85-0.69,5.71-1.34,8.56-2.03c0.87-0.21,1.53,0.02,2.15,0.65c6.56,6.58,13.14,13.15,19.71,19.73c0.16,0.16,0.27,0.38,0.43,0.61
			c0.83-0.84,1.52-1.55,2.23-2.25c0.83-0.82,1.93-0.87,2.64-0.15c0.74,0.75,0.67,1.79-0.18,2.64c-0.69,0.69-1.38,1.37-2.13,2.1
			c0.16,0.17,0.3,0.33,0.44,0.47c2.41,2.41,4.81,4.81,7.22,7.22c0.99,1,1,1.93,0,2.93c-1.59,1.6-3.19,3.19-4.78,4.79
			c-0.03,0.03-0.04,0.06-0.03,0.04c0.84,0.84,1.67,1.67,2.55,2.55c0.08-0.07,0.24-0.21,0.38-0.35c1.2-1.2,2.39-2.4,3.59-3.59
			c0.84-0.83,1.91-0.88,2.64-0.13c0.72,0.74,0.67,1.77-0.15,2.59c-3.54,3.55-7.09,7.1-10.64,10.65c-0.83,0.83-1.91,0.87-2.64,0.12
			c-0.72-0.74-0.66-1.77,0.15-2.59c1.34-1.35,2.7-2.69,3.98-3.97c-0.86-0.86-1.7-1.7-2.58-2.59c-1.05,1.05-2.2,2.18-3.31,3.34
			c-2.84,2.96-3.02,2.93-5.87-0.02c-1.88-1.94-3.82-3.83-5.73-5.74c-0.14-0.14-0.28-0.26-0.47-0.45c-0.74,0.74-1.46,1.47-2.18,2.2
			c-0.56,0.57-1.23,0.75-1.97,0.46c-1.17-0.44-1.47-1.89-0.6-2.84c0.59-0.64,1.23-1.24,1.85-1.86c0.13-0.14,0.26-0.28,0.54-0.57
			c-0.22-0.14-0.45-0.23-0.61-0.4c-6.54-6.53-13.06-13.07-19.61-19.58c-0.74-0.74-0.97-1.5-0.72-2.52c0.68-2.75,1.29-5.52,1.95-8.28
			c0.11-0.44,0.04-0.73-0.3-1.07c-3.09-3.07-6.18-6.15-9.24-9.24c-0.41-0.42-0.72-0.94-1.07-1.41c0-0.23,0-0.47,0-0.7
			c0.27-0.67,0.7-1.17,1.4-1.4C522.92,504.98,523.2,504.98,523.47,504.98z M560.8,534.33c-0.63,0.65-1.24,1.31-1.88,1.93
			c-0.52,0.51-1.15,0.63-1.83,0.38c-0.67-0.24-1.03-0.75-1.12-1.44c-0.08-0.6,0.16-1.1,0.59-1.52c0.62-0.61,1.23-1.22,1.79-1.78
			c-1.12-1.12-2.18-2.18-3.33-3.33c-0.1,0.14-0.2,0.34-0.35,0.49c-0.94,0.96-1.88,1.91-2.85,2.85c-0.72,0.7-1.79,0.69-2.47,0.02
			c-0.68-0.68-0.7-1.74-0.01-2.47c0.63-0.66,1.28-1.3,1.94-1.94c0.47-0.46,0.96-0.89,1.42-1.32c-1.16-1.16-2.22-2.22-3.32-3.32
			c-0.6,0.61-1.2,1.23-1.82,1.85c-0.49,0.49-1.07,0.7-1.76,0.51c-1.32-0.36-1.74-1.91-0.78-2.92c0.62-0.66,1.3-1.27,1.97-1.92
			c-1.05-1.04-2.01-2.01-2.99-2.95c-0.15-0.14-0.46-0.22-0.66-0.18c-2.52,0.57-5.03,1.18-7.55,1.76c-0.34,0.08-0.47,0.24-0.54,0.57
			c-0.54,2.41-1.08,4.81-1.66,7.21c-0.12,0.48-0.02,0.77,0.32,1.12c6.31,6.29,12.6,12.59,18.9,18.89c0.13,0.13,0.28,0.25,0.34,0.31
			c3.44-3.44,6.85-6.85,10.22-10.22C562.57,536.1,561.72,535.25,560.8,534.33z M562.3,556.21c3.42-3.41,6.83-6.81,10.15-10.13
			c-2.14-2.14-4.34-4.34-6.43-6.43c-3.35,3.35-6.76,6.76-10.13,10.13C558.01,551.91,560.19,554.1,562.3,556.21z"/>
	</g>
	<g>
		<path class="st6" d="M564.85,507.26c-0.3,0-0.53,0-0.76,0c-2.05,0-4.11,0-6.16,0c-1.34,0-1.81-0.48-1.81-1.83
			c0-0.75-0.01-1.5,0-2.25c0.01-1.2,0.5-1.7,1.69-1.71c2.09-0.01,4.19,0,6.28-0.01c0.23,0,0.46,0,0.77,0c0-0.3,0-0.53,0-0.76
			c0-2.05,0-4.11,0-6.16c0-1.34,0.48-1.81,1.83-1.81c0.73,0,1.46,0,2.19,0c1.27,0.01,1.77,0.49,1.77,1.75c0.01,2.07,0,4.15,0,6.22
			c0,0.23,0,0.46,0,0.77c0.3,0,0.53,0,0.76,0c2.05,0,4.11,0,6.16,0c1.34,0,1.81,0.48,1.81,1.83c0,0.75,0.01,1.5,0,2.25
			c-0.01,1.19-0.5,1.7-1.69,1.71c-2.09,0.01-4.19,0-6.28,0c-0.23,0-0.46,0-0.77,0c0,0.3,0,0.53,0,0.76c0,2.05,0,4.11,0,6.16
			c0,1.34-0.48,1.81-1.83,1.81c-0.75,0-1.5,0-2.25,0c-1.19-0.01-1.71-0.5-1.71-1.69c-0.01-2.09,0-4.19,0-6.28
			C564.85,507.79,564.85,507.56,564.85,507.26z"/>
	</g>
	<g>
		<g>
			<path class="st6" d="M450.62,535.91c-10.31-0.02-18.13,5.16-21.35,13.05c-0.31,0.76-0.39,1.23,0.39,1.88
				c3.21,2.7,2.26,7.88-1.72,9.26c-2.01,0.69-4.1,1.19-6.19,1.56c-3.34,0.58-5.25-0.85-5.88-4.23c-0.61-3.28-0.06-6.5,0.58-9.71
				c1.5-7.47,6.1-12.67,12.5-16.29c3.17-1.8,6.7-2.97,10.1-4.35c0.4-0.16,1.07-0.02,1.46,0.22c5.56,3.5,11.09,3.5,16.64-0.01
				c0.34-0.22,0.88-0.4,1.24-0.29c7.24,2.09,13.83,5.33,18.72,11.28c4.52,5.5,5.7,11.97,4.99,18.87c-0.12,1.11-0.7,2.23-1.29,3.21
				c-0.64,1.07-1.84,1.63-3.03,1.42c-2.78-0.49-5.67-0.83-8.26-1.87c-3.55-1.42-4.09-6.35-1.18-8.9c0.77-0.67,0.81-1.16,0.42-2
				C464.81,540.63,458.19,536.35,450.62,535.91z"/>
			<path class="st6" d="M438.85,544.38c4.35-4.38,14.4-5.4,20.52,0.21c-2.27,2.47-4.56,4.94-6.82,7.4c-2.19-1.15-4.23-1.32-6.33-0.4
				c-0.24,0.1-0.72,0.07-0.87-0.1C443.15,549.15,441.01,546.76,438.85,544.38z"/>
			<path class="st6" d="M454.36,560.94c1.21-2.11,1.43-4.26,0.39-6.48c-0.08-0.18,0.06-0.57,0.23-0.73c2.28-2.26,4.58-4.5,6.95-6.82
				c2.73,3.63,3.96,7.58,3.51,12.02c-0.03,0.27-0.29,0.71-0.5,0.74c-3.47,0.57-6.95,1.1-10.43,1.63
				C454.46,561.18,454.41,561.06,454.36,560.94z"/>
			<path class="st6" d="M443.86,561.35c-3.84-0.56-7.29-1.05-10.74-1.6c-0.25-0.04-0.58-0.58-0.6-0.91
				c-0.37-4.35,0.77-8.25,3.59-11.83c2.32,2.54,4.58,5.02,7,7.68C442.16,556.45,442.35,558.73,443.86,561.35z"/>
			<path class="st6" d="M449.01,560.55c-1.77,0.01-3.21-1.39-3.24-3.14c-0.03-1.8,1.43-3.26,3.25-3.24
				c1.76,0.02,3.18,1.44,3.18,3.19C452.21,559.09,450.76,560.54,449.01,560.55z"/>
		</g>
		<circle class="st6" cx="448.89" cy="509.78" r="15.68"/>
	</g>
</g>
</svg>
